<svg width="27" height="41" viewBox="0 0 27 41" fill="none" xmlns="http://www.w3.org/2000/svg">
<path d="M24.6921 26.5026L15.4994 10.182C15.299 9.82315 15.0083 9.52469 14.6571 9.31705C14.3058 9.1094 13.9066 9 13.5 9C13.0935 9 12.6942 9.1094 12.343 9.31705C11.9917 9.52469 11.7011 9.82315 11.5006 10.182L2.30795 26.5026C2.10535 26.8586 1.99911 27.2626 2.00001 27.6736C2.0009 28.0847 2.1089 28.4882 2.31306 28.8433C2.51721 29.1983 2.81027 29.4923 3.16252 29.6954C3.51477 29.8986 3.91369 30.0036 4.31885 29.9999H22.7042C23.1074 29.9995 23.5034 29.8915 23.8524 29.6866C24.2015 29.4818 24.4913 29.1875 24.6927 28.8331C24.8941 28.4787 25.0001 28.0769 25 27.6678C24.9999 27.2587 24.8937 26.8569 24.6921 26.5026Z" stroke="#D98F00" stroke-width="2" stroke-linecap="round" stroke-linejoin="round"/>
<path d="M13.5 15.375V22.2083" stroke="#D98F00" stroke-width="2" stroke-linecap="round" stroke-linejoin="round"/>
<path d="M13.5 26.3228H13.5113" stroke="#D98F00" stroke-width="2" stroke-linecap="round" stroke-linejoin="round"/>
</svg>
